<svg width="28" height="28" viewBox="0 0 28 28" fill="none" xmlns="http://www.w3.org/2000/svg">
<path d="M25.6671 14.2818C25.6671 13.4937 25.5893 12.6802 25.4596 11.9175H14.2305V16.4173H20.6619C20.4026 17.8663 19.5468 19.1374 18.2761 19.951L22.1142 22.8745C24.3704 20.8153 25.6671 17.8155 25.6671 14.2818Z" fill="#4280EF"/>
<path d="M14.2264 25.671C17.4422 25.671 20.1393 24.6287 22.1102 22.8492L18.2721 19.951C17.2088 20.6629 15.8343 21.0696 14.2264 21.0696C11.1144 21.0696 8.49516 19.0104 7.53563 16.2648L3.59375 19.2392C5.61655 23.1797 9.71403 25.671 14.2264 25.671Z" fill="#34A353"/>
<path d="M7.53816 16.2395C7.04543 14.7904 7.04543 13.2143 7.53816 11.7652L3.59628 8.76537C1.91061 12.0703 1.91061 15.9599 3.59628 19.2393L7.53816 16.2395Z" fill="#F6B704"/>
<path d="M14.2264 6.96028C15.9121 6.93485 17.5719 7.57041 18.7907 8.71442L22.188 5.35867C20.0355 3.37573 17.1829 2.308 14.2264 2.33342C9.71403 2.33342 5.61656 4.82481 3.59375 8.76526L7.53563 11.7651C8.49516 8.99406 11.1144 6.96028 14.2264 6.96028Z" fill="#E54335"/>
</svg>
