<svg width="24" height="24" viewBox="0 0 24 24" fill="none" xmlns="http://www.w3.org/2000/svg">
<path d="M15 12C15 12.7956 14.6839 13.5587 14.1213 14.1213C13.5587 14.6839 12.7956 15 12 15C11.2044 15 10.4413 14.6839 9.87868 14.1213C9.31607 13.5587 9 12.7956 9 12C9 11.2044 9.31607 10.4413 9.87868 9.87868C10.4413 9.31607 11.2044 9 12 9C12.7956 9 13.5587 9.31607 14.1213 9.87868C14.6839 10.4413 15 11.2044 15 12V12Z" stroke="#8EA4AC" stroke-width="2" stroke-linecap="round" stroke-linejoin="round"/>
<path d="M2.45703 12C3.73103 7.943 7.52203 5 11.999 5C16.477 5 20.267 7.943 21.541 12C20.267 16.057 16.477 19 11.999 19C7.52203 19 3.73103 16.057 2.45703 12V12Z" stroke="#8EA4AC" stroke-width="2" stroke-linecap="round" stroke-linejoin="round"/>
</svg>
