<?xml version="1.0" encoding="utf-8"?><!-- Uploaded to: SVG Repo, www.svgrepo.com, Generator: SVG Repo Mixer Tools -->
<svg version="1.1" id="designs" xmlns="http://www.w3.org/2000/svg" xmlns:xlink="http://www.w3.org/1999/xlink" 
	 width="800px" height="800px" viewBox="0 0 32 32" xml:space="preserve">
<style type="text/css">
	.sketchy_een{fill:#111918;}
</style>
<path class="sketchy_een" d="M29.908,16.895c-0.019-0.155-0.042-0.307-0.067-0.459c-0.036-0.216-0.127-0.418-0.221-0.626
	c-0.124-0.279-0.321-0.529-0.623-0.784c-0.144-0.124-0.294-0.237-0.455-0.26c0.442-0.199,0.761-0.474,0.973-0.839
	c0.3-0.513,0.375-1.081,0.21-1.599c-0.106-0.334-0.241-0.626-0.401-0.867c-0.195-0.299-0.442-0.548-0.753-0.756l0.118-0.065
	c0.403-0.238,0.73-0.528,0.972-0.862c0.247-0.341,0.317-0.898,0.188-1.491c-0.118-0.53-0.452-1.05-0.965-1.503
	c-0.101-0.087-0.208-0.171-0.316-0.171c-0.001,0,0.149-0.124,0.149-0.124c0.126-0.105,0.216-0.221,0.322-0.361
	c0.412-0.543,0.533-1.354,0.325-2.17c-0.123-0.48-0.436-0.891-0.934-1.22c-0.339-0.222-0.751-0.303-1.115-0.375
	c-0.943-0.189-1.68-0.289-2.388-0.326C24.448,2.011,23.97,2,23.492,2c-1.049,0-2.087,0.052-3.054,0.107
	c-1.506,0.089-3.214,0.19-4.872,0.507C15.041,2.713,14.522,2.85,13.98,3.03c-0.319,0.106-0.629,0.232-0.982,0.384
	c-0.203,0.089-0.406,0.177-0.6,0.283c-0.213,0.118-0.43,0.224-0.647,0.331c-0.223,0.109-0.445,0.219-0.662,0.339
	c-0.139,0.078-0.273,0.162-0.408,0.246l-0.162,0.101l0.021-0.056c-0.004-0.332-0.218-0.635-0.528-0.753
	C9.897,3.85,9.783,3.823,9.665,3.823l-0.606,0.01c0,0-0.781-0.025-0.926-0.027L6.257,3.824c-0.359,0-0.716-0.007-1.163-0.014
	C4.689,3.802,4.285,3.794,3.88,3.794c-0.237,0-0.474,0.004-0.689,0.016C3.088,3.763,2.979,3.74,2.868,3.74
	c-0.216,0-0.431,0.094-0.589,0.259C2.133,4.152,2.057,4.346,2.066,4.544c0.036,0.78,0.064,1.557,0.07,2.336
	C2.137,7.114,2.13,7.345,2.123,7.578l-0.03,1.528c-0.025,1.276-0.009,2.553,0.006,3.828l0.011,0.813
	c0.008,0.534,0.017,1.068,0.017,1.604c0,0,0,0.977,0,0.979c0,0.379-0.117,0.875,0.031,1.23c0.129,0.31,0.439,0.502,0.77,0.517
	c0.185,0.008,0.37,0.011,0.555,0.011c0.23,0,1.236-0.017,1.236-0.017l3.146-0.01c0.589,0,1.178-0.001,1.766-0.021
	c0.363-0.009,0.675-0.25,0.784-0.541l0.375,0.137c0.197,0.092,0.39,0.208,0.606,0.367c0.189,0.153,0.372,0.315,0.55,0.481
	c0.182,0.17,0.341,0.367,0.494,0.562l0.407,0.568c0.166,0.228,0.331,0.455,0.481,0.694c0.325,0.513,0.634,1.056,0.946,1.661
	l0.312,0.605c0.187,0.364,0.374,0.728,0.566,1.088c0.279,0.526,0.573,1.091,0.828,1.667c0.229,0.583,0.396,1.188,0.496,1.794
	c0.032,0.287,0.049,0.574,0.062,0.864l0.004,0.117c0.009,0.26,0.018,0.527,0.074,0.791c0.073,0.339,0.207,0.597,0.398,0.767
	C17.256,29.877,17.581,30,17.905,30c0.046,0,0.091-0.002,0.138-0.007c0.259-0.028,0.48-0.094,0.762-0.229
	c0.131-0.063,0.257-0.13,0.38-0.205l0.11-0.063c0.119-0.067,0.235-0.134,0.347-0.213c0.199-0.139,0.425-0.296,0.601-0.496
	c0.379-0.431,0.692-0.974,0.903-1.571c0.213-0.599,0.271-1.256,0.311-1.877c0.028-0.396-0.018-0.792-0.063-1.175
	c-0.02-0.173-0.041-0.345-0.054-0.519c-0.035-0.437-0.033-0.876-0.031-1.313l0.001-0.312c-0.001-0.185-0.005-0.37-0.009-0.554
	c-0.007-0.287-0.014-0.573-0.007-0.86l0.004-0.169c0.004-0.152,0.009-0.302,0.004-0.453l-0.055-0.09
	c0.878-0.055,1.919-0.112,3.014-0.112c0.323,0.001,0.646,0.007,0.969,0.014c0.349,0.007,0.699,0.013,1.049,0.013l0.139-0.001
	c0.379,0,0.752-0.02,1.128-0.058c0.266-0.026,0.535-0.07,0.795-0.132c0.477-0.116,0.919-0.427,1.212-0.852
	C29.98,18.149,29.958,17.329,29.908,16.895z M9.238,16.423c-0.38,0.026-0.761,0.039-1.145,0.041l-3.398,0.008
	c-0.274,0-0.547-0.014-0.819-0.027l-0.189,0.038l-0.009-0.405c0.001-0.274-0.002-0.55-0.005-0.825L3.67,15.071
	c-0.007-0.731-0.017-3.452-0.017-3.452C3.649,10.559,3.645,9.5,3.659,8.44c0.005-0.362,0.006-0.724,0.006-1.086L3.67,5.821
	L3.623,5.419c0.924-0.041,1.846-0.074,2.772-0.074h0.154c0.515,0.002,1.03,0.01,1.545,0.025C8.255,5.375,8.416,5.39,8.578,5.405
	l0.356-0.017l0.041,1.164c0.034,0.95,0.069,1.898,0.088,2.847l0.006,0.323c0.012,0.624,0.025,1.246,0.054,1.869
	c0.013,0.261,0.03,0.521,0.047,0.781c0.03,0.443,0.06,0.885,0.066,1.329C9.246,14.689,9.251,15.579,9.238,16.423z M28.218,17.821
	c-0.03,0.032-0.062,0.064-0.088,0.088c-0.053,0.033-0.107,0.063-0.155,0.089c-0.185,0.061-0.374,0.097-0.562,0.13
	c-0.671,0.074-1.359,0.085-2.002,0.085l-0.803-0.002c-0.305,0-0.609,0.002-0.914,0.01c-0.603,0.018-1.211,0.04-1.816,0.068
	c-0.239,0.012-0.478,0.028-0.716,0.045l-0.408,0.029c-0.136,0.01-0.273,0.019-0.411,0.019c-0.081,0-0.162-0.003-0.292-0.015
	c-0.208,0-0.411,0.127-0.521,0.237c-0.149,0.149-0.234,0.355-0.234,0.565c0,0.244,0.138,0.495,0.346,0.64
	c0.01,0.133,0.006,0.267,0.001,0.45l-0.014,1.106c-0.006,0.287-0.012,0.575-0.011,0.862c0,0-0.001,0.879,0.003,1.13
	c0.005,0.383,0.051,0.766,0.099,1.122c0.06,0.521,0.061,1.075,0.004,1.603c-0.04,0.227-0.098,0.442-0.178,0.652
	c-0.138,0.301-0.307,0.591-0.501,0.857c-0.125,0.148-0.271,0.271-0.419,0.39c-0.123,0.093-0.254,0.175-0.453,0.303l-0.121,0.11
	c-0.018-0.177-0.027-0.357-0.036-0.536l-0.012-0.203c-0.025-0.395-0.058-0.784-0.126-1.176c-0.122-0.709-0.345-1.432-0.644-2.088
	c-0.12-0.26-0.251-0.515-0.382-0.77c0,0-0.883-1.694-1.017-1.953c-0.207-0.4-0.415-0.801-0.634-1.193
	c-0.64-1.151-1.223-2.039-1.835-2.791c-0.318-0.392-0.721-0.71-1.073-0.979c-0.199-0.152-0.412-0.299-0.633-0.42
	c-0.293-0.16-0.596-0.278-0.901-0.359l0.008-0.974c0.01-0.635-0.007-1.278-0.051-1.966c-0.08-1.278-0.114-2.577-0.147-3.834
	l-0.028-0.995c-0.015-0.482-0.03-0.963-0.023-1.446L10.53,6.61c0.034-0.009,0.073-0.021,0.13-0.06
	c0.529-0.368,1.076-0.748,1.657-1.051c0.549-0.286,1.106-0.562,1.668-0.813c0.829-0.333,1.737-0.566,2.858-0.736
	c1.258-0.16,2.548-0.21,3.794-0.26l0.716-0.029c0.553-0.023,1.108-0.039,1.665-0.039c1.019,0,1.919,0.053,2.749,0.159
	c0.307,0.05,0.608,0.123,0.909,0.196l0.231,0.052c0.177,0.039,0.353,0.078,0.517,0.132c0.051,0.027,0.1,0.057,0.142,0.083
	l0.086,0.085c0.021,0.067,0.038,0.134,0.052,0.197c0.006,0.072,0.008,0.144,0.005,0.208c-0.017,0.079-0.035,0.155-0.096,0.297
	c-0.065,0.07-0.136,0.133-0.205,0.193c-0.136,0.096-0.277,0.184-0.421,0.255c-0.127,0.045-0.256,0.081-0.428,0.129
	c-0.045,0.012-0.089,0.026-0.187,0.067c-0.138,0.058-0.282,0.116-0.388,0.24c-0.194,0.224-0.28,0.431-0.28,0.672
	c0,0.542,0.434,0.868,0.864,0.95c0.18,0.037,0.355,0.079,0.526,0.139c0.187,0.087,0.37,0.188,0.534,0.302
	c0.153,0.132,0.29,0.271,0.417,0.422c0.032,0.049,0.061,0.099,0.087,0.146c0.014,0.041,0.025,0.083,0.034,0.114
	c0.003,0.059,0.005,0.119,0.018,0.145c-0.048,0.049-0.097,0.094-0.146,0.136c-0.153,0.109-0.311,0.206-0.476,0.285
	c-0.213,0.082-0.428,0.148-0.649,0.21L26.74,9.478C26.658,9.5,26.577,9.52,26.497,9.547c-0.438,0.152-0.698,0.476-0.71,0.887
	c-0.011,0.338,0.198,0.674,0.508,0.818c0.159,0.074,0.321,0.134,0.484,0.196l0.205,0.077c0.151,0.072,0.291,0.154,0.423,0.246
	c0.2,0.168,0.387,0.342,0.554,0.536c0.064,0.096,0.12,0.193,0.168,0.294c0.026,0.067,0.049,0.135,0.065,0.194
	c0.002,0.035,0.002,0.069-0.014,0.148c-0.034,0.063-0.07,0.125-0.158,0.232c-0.099,0.065-0.202,0.12-0.319,0.173
	c-0.195,0.081-0.39,0.162-0.592,0.216c-0.271,0.072-0.549,0.125-0.822,0.176c-0.122,0.019-0.23,0.083-0.323,0.185
	c-0.13,0.052-0.238,0.116-0.31,0.189c-0.154,0.154-0.242,0.367-0.242,0.584c0,0.218,0.089,0.431,0.242,0.585
	c0.164,0.163,0.344,0.213,0.58,0.242l0.416,0.049c0.152,0.024,0.297,0.055,0.438,0.103c0.228,0.104,0.434,0.225,0.63,0.368
	c0.129,0.103,0.256,0.207,0.363,0.321c0.05,0.077,0.094,0.157,0.133,0.233c0.04,0.115,0.067,0.231,0.09,0.346
	c0.018,0.183,0.024,0.363,0.013,0.541C28.3,17.583,28.278,17.677,28.218,17.821z"/>
</svg>